<svg width="56" height="56" viewBox="0 0 62 62" fill="none" xmlns="http://www.w3.org/2000/svg">
<g clip-path="url(#clip0_29_4)">
<path d="M25.8333 29.2778H31V32.7223H25.8333V29.2778Z" fill="#554904"/>
<path d="M45.5528 24.4039C42.4984 19.4056 38.3315 15.1798 33.3767 12.0555C31.0877 10.6048 28.4784 9.73646 25.7765 9.52631C23.0747 9.31617 20.3625 9.77061 17.8767 10.85C15.7024 11.8756 13.8104 13.415 12.3642 15.3353C10.9179 17.2557 9.96081 19.4992 9.57557 21.8722C9.43779 22.6816 9.33446 23.4566 9.23112 24.2144C7.61869 24.4758 6.15158 25.3016 5.09164 26.5445C4.03171 27.7874 3.44792 29.3665 3.44446 31V41.5572C3.44446 42.4707 3.80735 43.3468 4.45331 43.9928C5.09927 44.6387 5.97538 45.0016 6.8889 45.0016V31C6.8889 30.0864 7.2518 29.2103 7.89776 28.5644C8.54372 27.9184 9.41982 27.5555 10.3333 27.5555H42.5906C45.9098 27.5601 49.0918 28.8807 51.4389 31.2277C53.786 33.5748 55.1066 36.7568 55.1111 40.0761V41.3333H51.6667C50.9393 39.5596 49.5844 38.1158 47.8604 37.2774C46.1364 36.439 44.1641 36.2647 42.3197 36.7878C40.4754 37.3108 38.8883 38.4946 37.8611 40.1133C36.834 41.7319 36.4387 43.6721 36.7508 45.5635C37.0629 47.455 38.0605 49.1653 39.5532 50.3682C41.0459 51.5711 42.9292 52.1822 44.8438 52.0851C46.7584 51.9879 48.5702 51.1892 49.9334 49.8414C51.2967 48.4936 52.116 46.6911 52.235 44.7777H55.1111C56.0246 44.7777 56.9008 44.4148 57.5467 43.7689C58.1927 43.1229 58.5556 42.2468 58.5556 41.3333V40.0761C58.5486 36.3594 57.2466 32.7613 54.8734 29.901C52.5002 27.0406 49.2043 25.0967 45.5528 24.4039ZM18.9445 24.1111H11.935C11.935 23.5772 12.09 23.0261 12.1933 22.3889C12.4909 20.4969 13.2674 18.7125 14.4491 17.2053C15.6307 15.6981 17.1782 14.5182 18.9445 13.7777V24.1111ZM22.3889 24.1111V13.0544C25.6042 12.6369 28.8651 13.3426 31.62 15.0522C35.3809 17.3947 38.6269 20.4766 41.1611 24.1111H22.3889ZM44.4333 48.8766C43.5818 48.8766 42.7494 48.6241 42.0413 48.151C41.3333 47.6779 40.7814 47.0055 40.4555 46.2187C40.1297 45.432 40.0444 44.5663 40.2105 43.7311C40.3767 42.8959 40.7867 42.1287 41.3889 41.5266C41.991 40.9244 42.7582 40.5144 43.5934 40.3483C44.4286 40.1821 45.2943 40.2674 46.081 40.5933C46.8677 40.9191 47.5402 41.471 48.0133 42.179C48.4864 42.8871 48.7389 43.7195 48.7389 44.5711C48.7389 45.713 48.2853 46.8081 47.4778 47.6156C46.6704 48.423 45.5752 48.8766 44.4333 48.8766Z" fill="#554904"/>
<path d="M24.4039 41.3332C23.6765 39.5596 22.3216 38.1158 20.5976 37.2774C18.8736 36.439 16.9013 36.2647 15.057 36.7877C13.2126 37.3108 11.6255 38.4946 10.5983 40.1132C9.57116 41.7318 9.17592 43.672 9.48801 45.5635C9.8001 47.4549 10.7977 49.1653 12.2904 50.3681C13.7831 51.571 15.6664 52.1822 17.581 52.085C19.4956 51.9879 21.3074 51.1892 22.6706 49.8414C24.0339 48.4936 24.8532 46.691 24.9722 44.7777H34.1V44.3471C34.0659 43.331 34.182 42.3155 34.4444 41.3332H24.4039ZM17.2222 48.8766C16.3707 48.8766 15.5382 48.6241 14.8302 48.151C14.1221 47.6779 13.5703 47.0054 13.2444 46.2187C12.9185 45.432 12.8333 44.5662 12.9994 43.7311C13.1655 42.8959 13.5756 42.1287 14.1777 41.5265C14.7799 40.9244 15.547 40.5143 16.3822 40.3482C17.2174 40.1821 18.0831 40.2673 18.8699 40.5932C19.6566 40.9191 20.3291 41.4709 20.8022 42.179C21.2753 42.887 21.5278 43.7195 21.5278 44.571C21.5278 45.7129 21.0742 46.8081 20.2667 47.6155C19.4593 48.423 18.3641 48.8766 17.2222 48.8766Z" fill="#554904"/>
</g>
<defs>
<clipPath id="clip0_29_4">
<rect width="62" height="62" fill="white"/>
</clipPath>
</defs>
</svg>
