<svg width="27" height="27" viewBox="0 0 27 27" fill="none" xmlns="http://www.w3.org/2000/svg">
<path d="M18.6751 6.5475C17.906 5.66957 17.4822 4.54211 17.4826 3.375H14.0063V17.325C13.9795 18.0799 13.6608 18.7949 13.1173 19.3196C12.5738 19.8442 11.8479 20.1374 11.0926 20.1375C9.49505 20.1375 8.16755 18.8325 8.16755 17.2125C8.16755 15.2775 10.0351 13.8262 11.9588 14.4225V10.8675C8.07755 10.35 4.68005 13.365 4.68005 17.2125C4.68005 20.9588 7.78505 23.625 11.0813 23.625C14.6138 23.625 17.4826 20.7563 17.4826 17.2125V10.1363C18.8922 11.1486 20.5846 11.6917 22.3201 11.6888V8.2125C22.3201 8.2125 20.2051 8.31375 18.6751 6.5475Z" fill="#F8F8F8"/>
</svg>
