<svg width="26" height="26" viewBox="0 0 26 26" fill="none" xmlns="http://www.w3.org/2000/svg">
<path d="M23.8333 6.28332C23.019 6.63659 22.1578 6.87012 21.2766 6.97665C22.2063 6.42125 22.903 5.5475 23.2375 4.51748C22.3638 5.03755 21.4075 5.40397 20.41 5.60082C19.7432 4.87777 18.8553 4.39647 17.8856 4.23241C16.9158 4.06834 15.919 4.23079 15.0516 4.69427C14.1841 5.15776 13.495 5.89606 13.0923 6.79339C12.6896 7.69072 12.5962 8.69632 12.8266 9.65248C11.0602 9.56314 9.33227 9.10318 7.75517 8.3025C6.17807 7.50182 4.78704 6.37832 3.67246 5.00498C3.28152 5.68767 3.07611 6.46079 3.07663 7.24748C3.07524 7.97806 3.25453 8.69765 3.59853 9.34218C3.94253 9.9867 4.44056 10.5362 5.04829 10.9416C4.34193 10.9224 3.65067 10.7329 3.03329 10.3891V10.4433C3.03859 11.4669 3.39729 12.4573 4.04872 13.2469C4.70015 14.0366 5.60432 14.5769 6.60829 14.7767C6.22182 14.8943 5.82057 14.9563 5.41663 14.9608C5.13701 14.9576 4.85808 14.9322 4.58246 14.885C4.86836 15.7655 5.42163 16.5351 6.16529 17.0865C6.90895 17.6379 7.806 17.9438 8.73163 17.9617C7.1686 19.1915 5.23883 19.8627 3.24996 19.8683C2.88784 19.8695 2.52601 19.8478 2.16663 19.8033C4.19726 21.1144 6.56367 21.8104 8.98079 21.8075C10.6488 21.8248 12.3035 21.5096 13.8483 20.8802C15.3931 20.2509 16.7971 19.32 17.9781 18.142C19.1591 16.964 20.0936 15.5625 20.7269 14.0193C21.3602 12.4761 21.6797 10.8222 21.6666 9.15415V8.57998C22.5167 7.94603 23.2499 7.16886 23.8333 6.28332Z" fill="#F8F8F8"/>
</svg>
